<svg width="123" height="258" viewBox="0 0 123 258" fill="none" xmlns="http://www.w3.org/2000/svg">
<path fill-rule="evenodd" clip-rule="evenodd" d="M4 8C6.20914 8 8 6.20914 8 4C8 1.79086 6.20914 0 4 0C1.79086 0 0 1.79086 0 4C0 6.20914 1.79086 8 4 8Z" fill="#EEFBFF"/>
<path fill-rule="evenodd" clip-rule="evenodd" d="M4 31C6.20914 31 8 29.2091 8 27C8 24.7909 6.20914 23 4 23C1.79086 23 0 24.7909 0 27C0 29.2091 1.79086 31 4 31Z" fill="#EEFBFF"/>
<path fill-rule="evenodd" clip-rule="evenodd" d="M27 8C29.2091 8 31 6.20914 31 4C31 1.79086 29.2091 0 27 0C24.7909 0 23 1.79086 23 4C23 6.20914 24.7909 8 27 8Z" fill="#EEFBFF"/>
<path fill-rule="evenodd" clip-rule="evenodd" d="M27 31C29.2091 31 31 29.2091 31 27C31 24.7909 29.2091 23 27 23C24.7909 23 23 24.7909 23 27C23 29.2091 24.7909 31 27 31Z" fill="#EEFBFF"/>
<path fill-rule="evenodd" clip-rule="evenodd" d="M50 8C52.2091 8 54 6.20914 54 4C54 1.79086 52.2091 0 50 0C47.7909 0 46 1.79086 46 4C46 6.20914 47.7909 8 50 8Z" fill="#EEFBFF"/>
<path fill-rule="evenodd" clip-rule="evenodd" d="M50 31C52.2091 31 54 29.2091 54 27C54 24.7909 52.2091 23 50 23C47.7909 23 46 24.7909 46 27C46 29.2091 47.7909 31 50 31Z" fill="#EEFBFF"/>
<path fill-rule="evenodd" clip-rule="evenodd" d="M73 8C75.2091 8 77 6.20914 77 4C77 1.79086 75.2091 0 73 0C70.7909 0 69 1.79086 69 4C69 6.20914 70.7909 8 73 8Z" fill="#EEFBFF"/>
<path fill-rule="evenodd" clip-rule="evenodd" d="M73 31C75.2091 31 77 29.2091 77 27C77 24.7909 75.2091 23 73 23C70.7909 23 69 24.7909 69 27C69 29.2091 70.7909 31 73 31Z" fill="#EEFBFF"/>
<path fill-rule="evenodd" clip-rule="evenodd" d="M96 8C98.2091 8 100 6.20914 100 4C100 1.79086 98.2091 0 96 0C93.7909 0 92 1.79086 92 4C92 6.20914 93.7909 8 96 8Z" fill="#EEFBFF"/>
<path fill-rule="evenodd" clip-rule="evenodd" d="M96 31C98.2091 31 100 29.2091 100 27C100 24.7909 98.2091 23 96 23C93.7909 23 92 24.7909 92 27C92 29.2091 93.7909 31 96 31Z" fill="#EEFBFF"/>
<path fill-rule="evenodd" clip-rule="evenodd" d="M119 8C121.209 8 123 6.20914 123 4C123 1.79086 121.209 0 119 0C116.791 0 115 1.79086 115 4C115 6.20914 116.791 8 119 8Z" fill="#EEFBFF"/>
<path fill-rule="evenodd" clip-rule="evenodd" d="M119 31C121.209 31 123 29.2091 123 27C123 24.7909 121.209 23 119 23C116.791 23 115 24.7909 115 27C115 29.2091 116.791 31 119 31Z" fill="#EEFBFF"/>
<path fill-rule="evenodd" clip-rule="evenodd" d="M4 54C6.20914 54 8 52.2091 8 50C8 47.7909 6.20914 46 4 46C1.79086 46 0 47.7909 0 50C0 52.2091 1.79086 54 4 54Z" fill="#EEFBFF"/>
<path fill-rule="evenodd" clip-rule="evenodd" d="M27 54C29.2091 54 31 52.2091 31 50C31 47.7909 29.2091 46 27 46C24.7909 46 23 47.7909 23 50C23 52.2091 24.7909 54 27 54Z" fill="#EEFBFF"/>
<path fill-rule="evenodd" clip-rule="evenodd" d="M50 54C52.2091 54 54 52.2091 54 50C54 47.7909 52.2091 46 50 46C47.7909 46 46 47.7909 46 50C46 52.2091 47.7909 54 50 54Z" fill="#EEFBFF"/>
<path fill-rule="evenodd" clip-rule="evenodd" d="M73 54C75.2091 54 77 52.2091 77 50C77 47.7909 75.2091 46 73 46C70.7909 46 69 47.7909 69 50C69 52.2091 70.7909 54 73 54Z" fill="#EEFBFF"/>
<path fill-rule="evenodd" clip-rule="evenodd" d="M96 54C98.2091 54 100 52.2091 100 50C100 47.7909 98.2091 46 96 46C93.7909 46 92 47.7909 92 50C92 52.2091 93.7909 54 96 54Z" fill="#EEFBFF"/>
<path fill-rule="evenodd" clip-rule="evenodd" d="M119 54C121.209 54 123 52.2091 123 50C123 47.7909 121.209 46 119 46C116.791 46 115 47.7909 115 50C115 52.2091 116.791 54 119 54Z" fill="#EEFBFF"/>
<path fill-rule="evenodd" clip-rule="evenodd" d="M4 77C6.20914 77 8 75.2091 8 73C8 70.7909 6.20914 69 4 69C1.79086 69 0 70.7909 0 73C0 75.2091 1.79086 77 4 77Z" fill="#EEFBFF"/>
<path fill-rule="evenodd" clip-rule="evenodd" d="M27 77C29.2091 77 31 75.2091 31 73C31 70.7909 29.2091 69 27 69C24.7909 69 23 70.7909 23 73C23 75.2091 24.7909 77 27 77Z" fill="#EEFBFF"/>
<path fill-rule="evenodd" clip-rule="evenodd" d="M50 77C52.2091 77 54 75.2091 54 73C54 70.7909 52.2091 69 50 69C47.7909 69 46 70.7909 46 73C46 75.2091 47.7909 77 50 77Z" fill="#EEFBFF"/>
<path fill-rule="evenodd" clip-rule="evenodd" d="M73 77C75.2091 77 77 75.2091 77 73C77 70.7909 75.2091 69 73 69C70.7909 69 69 70.7909 69 73C69 75.2091 70.7909 77 73 77Z" fill="#EEFBFF"/>
<path fill-rule="evenodd" clip-rule="evenodd" d="M96 77C98.2091 77 100 75.2091 100 73C100 70.7909 98.2091 69 96 69C93.7909 69 92 70.7909 92 73C92 75.2091 93.7909 77 96 77Z" fill="#EEFBFF"/>
<path fill-rule="evenodd" clip-rule="evenodd" d="M119 77C121.209 77 123 75.2091 123 73C123 70.7909 121.209 69 119 69C116.791 69 115 70.7909 115 73C115 75.2091 116.791 77 119 77Z" fill="#EEFBFF"/>
<path fill-rule="evenodd" clip-rule="evenodd" d="M4 100C6.20914 100 8 98.2091 8 96C8 93.7909 6.20914 92 4 92C1.79086 92 0 93.7909 0 96C0 98.2091 1.79086 100 4 100Z" fill="#EEFBFF"/>
<path fill-rule="evenodd" clip-rule="evenodd" d="M27 100C29.2091 100 31 98.2091 31 96C31 93.7909 29.2091 92 27 92C24.7909 92 23 93.7909 23 96C23 98.2091 24.7909 100 27 100Z" fill="#EEFBFF"/>
<path fill-rule="evenodd" clip-rule="evenodd" d="M50 100C52.2091 100 54 98.2091 54 96C54 93.7909 52.2091 92 50 92C47.7909 92 46 93.7909 46 96C46 98.2091 47.7909 100 50 100Z" fill="#EEFBFF"/>
<path fill-rule="evenodd" clip-rule="evenodd" d="M73 100C75.2091 100 77 98.2091 77 96C77 93.7909 75.2091 92 73 92C70.7909 92 69 93.7909 69 96C69 98.2091 70.7909 100 73 100Z" fill="#EEFBFF"/>
<path fill-rule="evenodd" clip-rule="evenodd" d="M96 100C98.2091 100 100 98.2091 100 96C100 93.7909 98.2091 92 96 92C93.7909 92 92 93.7909 92 96C92 98.2091 93.7909 100 96 100Z" fill="#EEFBFF"/>
<path fill-rule="evenodd" clip-rule="evenodd" d="M119 100C121.209 100 123 98.2091 123 96C123 93.7909 121.209 92 119 92C116.791 92 115 93.7909 115 96C115 98.2091 116.791 100 119 100Z" fill="#EEFBFF"/>
<path fill-rule="evenodd" clip-rule="evenodd" d="M4 123C6.20914 123 8 121.209 8 119C8 116.791 6.20914 115 4 115C1.79086 115 0 116.791 0 119C0 121.209 1.79086 123 4 123Z" fill="#EEFBFF"/>
<path fill-rule="evenodd" clip-rule="evenodd" d="M27 123C29.2091 123 31 121.209 31 119C31 116.791 29.2091 115 27 115C24.7909 115 23 116.791 23 119C23 121.209 24.7909 123 27 123Z" fill="#EEFBFF"/>
<path fill-rule="evenodd" clip-rule="evenodd" d="M50 123C52.2091 123 54 121.209 54 119C54 116.791 52.2091 115 50 115C47.7909 115 46 116.791 46 119C46 121.209 47.7909 123 50 123Z" fill="#EEFBFF"/>
<path fill-rule="evenodd" clip-rule="evenodd" d="M73 123C75.2091 123 77 121.209 77 119C77 116.791 75.2091 115 73 115C70.7909 115 69 116.791 69 119C69 121.209 70.7909 123 73 123Z" fill="#EEFBFF"/>
<path fill-rule="evenodd" clip-rule="evenodd" d="M96 123C98.2091 123 100 121.209 100 119C100 116.791 98.2091 115 96 115C93.7909 115 92 116.791 92 119C92 121.209 93.7909 123 96 123Z" fill="#EEFBFF"/>
<path fill-rule="evenodd" clip-rule="evenodd" d="M119 123C121.209 123 123 121.209 123 119C123 116.791 121.209 115 119 115C116.791 115 115 116.791 115 119C115 121.209 116.791 123 119 123Z" fill="#EEFBFF"/>
<path fill-rule="evenodd" clip-rule="evenodd" d="M4 143C6.20914 143 8 141.209 8 139C8 136.791 6.20914 135 4 135C1.79086 135 0 136.791 0 139C0 141.209 1.79086 143 4 143Z" fill="#EEFBFF"/>
<path fill-rule="evenodd" clip-rule="evenodd" d="M4 166C6.20914 166 8 164.209 8 162C8 159.791 6.20914 158 4 158C1.79086 158 0 159.791 0 162C0 164.209 1.79086 166 4 166Z" fill="#EEFBFF"/>
<path fill-rule="evenodd" clip-rule="evenodd" d="M27 143C29.2091 143 31 141.209 31 139C31 136.791 29.2091 135 27 135C24.7909 135 23 136.791 23 139C23 141.209 24.7909 143 27 143Z" fill="#EEFBFF"/>
<path fill-rule="evenodd" clip-rule="evenodd" d="M27 166C29.2091 166 31 164.209 31 162C31 159.791 29.2091 158 27 158C24.7909 158 23 159.791 23 162C23 164.209 24.7909 166 27 166Z" fill="#EEFBFF"/>
<path fill-rule="evenodd" clip-rule="evenodd" d="M50 143C52.2091 143 54 141.209 54 139C54 136.791 52.2091 135 50 135C47.7909 135 46 136.791 46 139C46 141.209 47.7909 143 50 143Z" fill="#EEFBFF"/>
<path fill-rule="evenodd" clip-rule="evenodd" d="M50 166C52.2091 166 54 164.209 54 162C54 159.791 52.2091 158 50 158C47.7909 158 46 159.791 46 162C46 164.209 47.7909 166 50 166Z" fill="#EEFBFF"/>
<path fill-rule="evenodd" clip-rule="evenodd" d="M73 143C75.2091 143 77 141.209 77 139C77 136.791 75.2091 135 73 135C70.7909 135 69 136.791 69 139C69 141.209 70.7909 143 73 143Z" fill="#EEFBFF"/>
<path fill-rule="evenodd" clip-rule="evenodd" d="M73 166C75.2091 166 77 164.209 77 162C77 159.791 75.2091 158 73 158C70.7909 158 69 159.791 69 162C69 164.209 70.7909 166 73 166Z" fill="#EEFBFF"/>
<path fill-rule="evenodd" clip-rule="evenodd" d="M96 143C98.2091 143 100 141.209 100 139C100 136.791 98.2091 135 96 135C93.7909 135 92 136.791 92 139C92 141.209 93.7909 143 96 143Z" fill="#EEFBFF"/>
<path fill-rule="evenodd" clip-rule="evenodd" d="M96 166C98.2091 166 100 164.209 100 162C100 159.791 98.2091 158 96 158C93.7909 158 92 159.791 92 162C92 164.209 93.7909 166 96 166Z" fill="#EEFBFF"/>
<path fill-rule="evenodd" clip-rule="evenodd" d="M119 143C121.209 143 123 141.209 123 139C123 136.791 121.209 135 119 135C116.791 135 115 136.791 115 139C115 141.209 116.791 143 119 143Z" fill="#EEFBFF"/>
<path fill-rule="evenodd" clip-rule="evenodd" d="M119 166C121.209 166 123 164.209 123 162C123 159.791 121.209 158 119 158C116.791 158 115 159.791 115 162C115 164.209 116.791 166 119 166Z" fill="#EEFBFF"/>
<path fill-rule="evenodd" clip-rule="evenodd" d="M4 189C6.20914 189 8 187.209 8 185C8 182.791 6.20914 181 4 181C1.79086 181 0 182.791 0 185C0 187.209 1.79086 189 4 189Z" fill="#EEFBFF"/>
<path fill-rule="evenodd" clip-rule="evenodd" d="M27 189C29.2091 189 31 187.209 31 185C31 182.791 29.2091 181 27 181C24.7909 181 23 182.791 23 185C23 187.209 24.7909 189 27 189Z" fill="#EEFBFF"/>
<path fill-rule="evenodd" clip-rule="evenodd" d="M50 189C52.2091 189 54 187.209 54 185C54 182.791 52.2091 181 50 181C47.7909 181 46 182.791 46 185C46 187.209 47.7909 189 50 189Z" fill="#EEFBFF"/>
<path fill-rule="evenodd" clip-rule="evenodd" d="M73 189C75.2091 189 77 187.209 77 185C77 182.791 75.2091 181 73 181C70.7909 181 69 182.791 69 185C69 187.209 70.7909 189 73 189Z" fill="#EEFBFF"/>
<path fill-rule="evenodd" clip-rule="evenodd" d="M96 189C98.2091 189 100 187.209 100 185C100 182.791 98.2091 181 96 181C93.7909 181 92 182.791 92 185C92 187.209 93.7909 189 96 189Z" fill="#EEFBFF"/>
<path fill-rule="evenodd" clip-rule="evenodd" d="M119 189C121.209 189 123 187.209 123 185C123 182.791 121.209 181 119 181C116.791 181 115 182.791 115 185C115 187.209 116.791 189 119 189Z" fill="#EEFBFF"/>
<path fill-rule="evenodd" clip-rule="evenodd" d="M4 212C6.20914 212 8 210.209 8 208C8 205.791 6.20914 204 4 204C1.79086 204 0 205.791 0 208C0 210.209 1.79086 212 4 212Z" fill="#EEFBFF"/>
<path fill-rule="evenodd" clip-rule="evenodd" d="M27 212C29.2091 212 31 210.209 31 208C31 205.791 29.2091 204 27 204C24.7909 204 23 205.791 23 208C23 210.209 24.7909 212 27 212Z" fill="#EEFBFF"/>
<path fill-rule="evenodd" clip-rule="evenodd" d="M50 212C52.2091 212 54 210.209 54 208C54 205.791 52.2091 204 50 204C47.7909 204 46 205.791 46 208C46 210.209 47.7909 212 50 212Z" fill="#EEFBFF"/>
<path fill-rule="evenodd" clip-rule="evenodd" d="M73 212C75.2091 212 77 210.209 77 208C77 205.791 75.2091 204 73 204C70.7909 204 69 205.791 69 208C69 210.209 70.7909 212 73 212Z" fill="#EEFBFF"/>
<path fill-rule="evenodd" clip-rule="evenodd" d="M96 212C98.2091 212 100 210.209 100 208C100 205.791 98.2091 204 96 204C93.7909 204 92 205.791 92 208C92 210.209 93.7909 212 96 212Z" fill="#EEFBFF"/>
<path fill-rule="evenodd" clip-rule="evenodd" d="M119 212C121.209 212 123 210.209 123 208C123 205.791 121.209 204 119 204C116.791 204 115 205.791 115 208C115 210.209 116.791 212 119 212Z" fill="#EEFBFF"/>
<path fill-rule="evenodd" clip-rule="evenodd" d="M4 235C6.20914 235 8 233.209 8 231C8 228.791 6.20914 227 4 227C1.79086 227 0 228.791 0 231C0 233.209 1.79086 235 4 235Z" fill="#EEFBFF"/>
<path fill-rule="evenodd" clip-rule="evenodd" d="M27 235C29.2091 235 31 233.209 31 231C31 228.791 29.2091 227 27 227C24.7909 227 23 228.791 23 231C23 233.209 24.7909 235 27 235Z" fill="#EEFBFF"/>
<path fill-rule="evenodd" clip-rule="evenodd" d="M50 235C52.2091 235 54 233.209 54 231C54 228.791 52.2091 227 50 227C47.7909 227 46 228.791 46 231C46 233.209 47.7909 235 50 235Z" fill="#EEFBFF"/>
<path fill-rule="evenodd" clip-rule="evenodd" d="M73 235C75.2091 235 77 233.209 77 231C77 228.791 75.2091 227 73 227C70.7909 227 69 228.791 69 231C69 233.209 70.7909 235 73 235Z" fill="#EEFBFF"/>
<path fill-rule="evenodd" clip-rule="evenodd" d="M96 235C98.2091 235 100 233.209 100 231C100 228.791 98.2091 227 96 227C93.7909 227 92 228.791 92 231C92 233.209 93.7909 235 96 235Z" fill="#EEFBFF"/>
<path fill-rule="evenodd" clip-rule="evenodd" d="M119 235C121.209 235 123 233.209 123 231C123 228.791 121.209 227 119 227C116.791 227 115 228.791 115 231C115 233.209 116.791 235 119 235Z" fill="#EEFBFF"/>
<path fill-rule="evenodd" clip-rule="evenodd" d="M4 258C6.20914 258 8 256.209 8 254C8 251.791 6.20914 250 4 250C1.79086 250 0 251.791 0 254C0 256.209 1.79086 258 4 258Z" fill="#EEFBFF"/>
<path fill-rule="evenodd" clip-rule="evenodd" d="M27 258C29.2091 258 31 256.209 31 254C31 251.791 29.2091 250 27 250C24.7909 250 23 251.791 23 254C23 256.209 24.7909 258 27 258Z" fill="#EEFBFF"/>
<path fill-rule="evenodd" clip-rule="evenodd" d="M50 258C52.2091 258 54 256.209 54 254C54 251.791 52.2091 250 50 250C47.7909 250 46 251.791 46 254C46 256.209 47.7909 258 50 258Z" fill="#EEFBFF"/>
<path fill-rule="evenodd" clip-rule="evenodd" d="M73 258C75.2091 258 77 256.209 77 254C77 251.791 75.2091 250 73 250C70.7909 250 69 251.791 69 254C69 256.209 70.7909 258 73 258Z" fill="#EEFBFF"/>
<path fill-rule="evenodd" clip-rule="evenodd" d="M96 258C98.2091 258 100 256.209 100 254C100 251.791 98.2091 250 96 250C93.7909 250 92 251.791 92 254C92 256.209 93.7909 258 96 258Z" fill="#EEFBFF"/>
<path fill-rule="evenodd" clip-rule="evenodd" d="M119 258C121.209 258 123 256.209 123 254C123 251.791 121.209 250 119 250C116.791 250 115 251.791 115 254C115 256.209 116.791 258 119 258Z" fill="#EEFBFF"/>
</svg>
